<svg width="24" height="24" viewBox="0 0 24 24" fill="none" xmlns="http://www.w3.org/2000/svg">
<path d="M21.6 0H2.4C1.76429 0.00263237 1.15537 0.256334 0.705852 0.705852C0.256334 1.15537 0.00263237 1.76429 0 2.4L0 21.6C0.00263237 22.2357 0.256334 22.8446 0.705852 23.2941C1.15537 23.7437 1.76429 23.9974 2.4 24H21.6C22.2357 23.9974 22.8446 23.7437 23.2941 23.2941C23.7437 22.8446 23.9974 22.2357 24 21.6V2.4C23.9974 1.76429 23.7437 1.15537 23.2941 0.705852C22.8446 0.256334 22.2357 0.00263237 21.6 0V0ZM7.045 14.465C7.55422 14.6971 8.13476 14.7173 8.65892 14.5214C9.18309 14.3254 9.60793 13.9292 9.84 13.42H11.5C11.286 14.2966 10.7583 15.0644 10.0165 15.5783C9.27479 16.0921 8.37047 16.3164 7.47459 16.2086C6.57871 16.1008 5.75336 15.6686 5.15462 14.9935C4.55588 14.3184 4.22524 13.4473 4.22524 12.545C4.22524 11.6427 4.55588 10.7716 5.15462 10.0965C5.75336 9.42145 6.57871 8.98916 7.47459 8.88141C8.37047 8.77365 9.27479 8.99789 10.0165 9.51174C10.7583 10.0256 11.286 10.7934 11.5 11.67H9.84C9.69869 11.3599 9.48439 11.0887 9.2154 10.8795C8.94642 10.6702 8.63077 10.5293 8.29545 10.4686C7.96012 10.408 7.61509 10.4295 7.28988 10.5312C6.96466 10.633 6.66893 10.812 6.42797 11.053C6.18701 11.2939 6.008 11.5897 5.90624 11.9149C5.80448 12.2401 5.783 12.5851 5.84364 12.9204C5.90428 13.2558 6.04524 13.5714 6.25445 13.8404C6.46367 14.1094 6.73491 14.3237 7.045 14.465ZM18.39 15.31C18.0761 15.5802 17.7174 15.7934 17.33 15.94C16.7762 16.155 16.1786 16.2327 15.5883 16.1665C14.998 16.1003 14.4324 15.8922 13.94 15.56V15.94H12.43V5.37H13.93V9.48C14.4655 9.11798 15.0856 8.90093 15.73 8.85H16C16.7508 8.84883 17.4839 9.07797 18.1004 9.50652C18.717 9.93507 19.1872 10.5424 19.4477 11.2466C19.7082 11.9507 19.7465 12.7179 19.5574 13.4445C19.3682 14.1711 18.9608 14.8222 18.39 15.31ZM18.167 12.544C18.1731 12.8241 18.1232 13.1026 18.0202 13.3631C17.9173 13.6237 17.7633 13.8611 17.5674 14.0613C17.3714 14.2616 17.1375 14.4207 16.8792 14.5293C16.621 14.6379 16.3437 14.6939 16.0635 14.6939C15.7833 14.6939 15.506 14.6379 15.2478 14.5293C14.9895 14.4207 14.7556 14.2616 14.5596 14.0613C14.3637 13.8611 14.2097 13.6237 14.1068 13.3631C14.0038 13.1026 13.9539 12.8241 13.96 12.544C13.972 11.9941 14.1989 11.4707 14.5921 11.086C14.9852 10.7013 15.5134 10.4859 16.0635 10.4859C16.6136 10.4859 17.1418 10.7013 17.5349 11.086C17.9281 11.4707 18.155 11.9941 18.167 12.544Z" fill="white"/>
</svg>
