<svg width="236" height="41" viewBox="0 0 236 41" fill="none" xmlns="http://www.w3.org/2000/svg">
<path d="M7.35344 10.7712C8.02249 9.72743 8.9458 8.88442 10.1233 8.24212C11.3009 7.59982 12.6791 7.27867 14.2581 7.27867C16.1047 7.27867 17.7774 7.74701 19.2761 8.6837C20.7748 9.62038 21.9523 10.9585 22.8087 12.6981C23.6919 14.4376 24.1334 16.4582 24.1334 18.7597C24.1334 21.0613 23.6919 23.0952 22.8087 24.8615C21.9523 26.6011 20.7748 27.9526 19.2761 28.916C17.7774 29.8527 16.1047 30.3211 14.2581 30.3211C12.7059 30.3211 11.3276 29.9999 10.1233 29.3576C8.9458 28.7153 8.02249 27.8857 7.35344 26.8687V40.6781H0.488892V7.59982H7.35344V10.7712ZM17.1485 18.7597C17.1485 17.0469 16.6667 15.7088 15.7033 14.7454C14.7666 13.7552 13.6024 13.2601 12.2108 13.2601C10.8459 13.2601 9.68176 13.7552 8.71832 14.7454C7.78163 15.7356 7.31329 17.0871 7.31329 18.7999C7.31329 20.5127 7.78163 21.8642 8.71832 22.8544C9.68176 23.8446 10.8459 24.3397 12.2108 24.3397C13.5757 24.3397 14.7398 23.8446 15.7033 22.8544C16.6667 21.8374 17.1485 20.4725 17.1485 18.7597Z" fill="white"/>
<path d="M48.0474 18.4386C48.0474 19.0809 48.0072 19.7499 47.9269 20.4458H32.3914C32.4984 21.8374 32.94 22.9079 33.7161 23.6572C34.519 24.3798 35.4958 24.7411 36.6466 24.7411C38.3594 24.7411 39.5503 24.0185 40.2194 22.5734H47.5255C47.1508 24.0453 46.4684 25.37 45.4782 26.5476C44.5147 27.7251 43.2971 28.6484 41.8251 29.3175C40.3532 29.9865 38.7073 30.3211 36.8875 30.3211C34.693 30.3211 32.7393 29.8527 31.0265 28.916C29.3137 27.9794 27.9756 26.6412 27.0122 24.9017C26.0487 23.1621 25.567 21.1282 25.567 18.7999C25.567 16.4715 26.0353 14.4376 26.972 12.6981C27.9355 10.9585 29.2736 9.62038 30.9864 8.6837C32.6992 7.74701 34.6662 7.27867 36.8875 7.27867C39.0552 7.27867 40.9821 7.73363 42.6681 8.64356C44.3542 9.55348 45.6655 10.8514 46.6022 12.5375C47.5656 14.2235 48.0474 16.1905 48.0474 18.4386ZM41.0223 16.6321C41.0223 15.4546 40.6208 14.5179 39.8179 13.8221C39.0151 13.1262 38.0115 12.7783 36.8072 12.7783C35.6564 12.7783 34.6796 13.1129 33.8767 13.7819C33.1006 14.451 32.6189 15.401 32.4315 16.6321H41.0223Z" fill="white"/>
<path d="M71.9814 18.4386C71.9814 19.0809 71.9412 19.7499 71.8609 20.4458H56.3254C56.4324 21.8374 56.874 22.9079 57.6501 23.6572C58.453 24.3798 59.4298 24.7411 60.5806 24.7411C62.2934 24.7411 63.4843 24.0185 64.1534 22.5734H71.4595C71.0848 24.0453 70.4024 25.37 69.4122 26.5476C68.4487 27.7251 67.2311 28.6484 65.7591 29.3175C64.2872 29.9865 62.6413 30.3211 60.8215 30.3211C58.627 30.3211 56.6733 29.8527 54.9605 28.916C53.2477 27.9794 51.9096 26.6412 50.9462 24.9017C49.9827 23.1621 49.501 21.1282 49.501 18.7999C49.501 16.4715 49.9693 14.4376 50.906 12.6981C51.8695 10.9585 53.2076 9.62038 54.9204 8.6837C56.6332 7.74701 58.6002 7.27867 60.8215 7.27867C62.9892 7.27867 64.9161 7.73363 66.6021 8.64356C68.2882 9.55348 69.5995 10.8514 70.5362 12.5375C71.4997 14.2235 71.9814 16.1905 71.9814 18.4386ZM64.9563 16.6321C64.9563 15.4546 64.5548 14.5179 63.752 13.8221C62.9491 13.1262 61.9455 12.7783 60.7412 12.7783C59.5904 12.7783 58.6136 13.1129 57.8107 13.7819C57.0346 14.451 56.5529 15.401 56.3655 16.6321H64.9563Z" fill="white"/>
<path d="M81.6644 11.3332C82.4673 10.1021 83.4709 9.13866 84.6752 8.44284C85.8795 7.72025 87.2176 7.35896 88.6896 7.35896V14.6249H86.8028C85.09 14.6249 83.8054 14.9996 82.949 15.749C82.0926 16.4715 81.6644 17.7561 81.6644 19.6027V29.9999H74.7999V7.59982H81.6644V11.3332Z" fill="white"/>
<path d="M90.4051 18.9604C90.4051 16.6856 90.86 14.7052 91.7699 13.0192C92.6799 11.3064 93.9377 9.98167 95.5434 9.04499C97.1759 8.10831 99.0359 7.63997 101.123 7.63997C103.826 7.63997 106.048 8.29564 107.787 9.607C109.554 10.9184 110.718 12.7382 111.28 15.0665H107.346C106.971 13.7284 106.235 12.6713 105.138 11.8952C104.067 11.1191 102.729 10.731 101.123 10.731C99.0359 10.731 97.3499 11.4536 96.0653 12.8988C94.7807 14.3172 94.1384 16.3377 94.1384 18.9604C94.1384 21.6099 94.7807 23.6572 96.0653 25.1024C97.3499 26.5476 99.0359 27.2702 101.123 27.2702C102.729 27.2702 104.067 26.8955 105.138 26.1461C106.208 25.3968 106.944 24.3263 107.346 22.9347H111.28C110.691 25.1827 109.513 26.9891 107.747 28.354C105.981 29.6921 103.773 30.3612 101.123 30.3612C99.0359 30.3612 97.1759 29.8929 95.5434 28.9562C93.9377 28.0195 92.6799 26.6948 91.7699 24.982C90.86 23.2692 90.4051 21.262 90.4051 18.9604Z" fill="white"/>
<path d="M126.27 7.59982C127.929 7.59982 129.428 7.96111 130.766 8.6837C132.104 9.37952 133.148 10.4366 133.897 11.855C134.674 13.2734 135.062 14.9996 135.062 17.0336V29.9999H131.449V17.5554C131.449 15.3609 130.9 13.6883 129.803 12.5375C128.706 11.3599 127.207 10.7712 125.307 10.7712C123.38 10.7712 121.841 11.3733 120.69 12.5776C119.566 13.7819 119.004 15.5349 119.004 17.8364V29.9999H115.351V0.293701H119.004V11.1325C119.727 10.0084 120.717 9.13866 121.975 8.52312C123.259 7.90759 124.691 7.59982 126.27 7.59982Z" fill="white"/>
<path d="M160.298 18.1576C160.298 18.8534 160.258 19.5894 160.177 20.3655H142.594C142.728 22.5332 143.464 24.2326 144.802 25.4637C146.167 26.668 147.813 27.2702 149.74 27.2702C151.319 27.2702 152.63 26.9089 153.674 26.1863C154.745 25.4369 155.494 24.4467 155.922 23.2157H159.856C159.267 25.3299 158.09 27.0561 156.324 28.3942C154.557 29.7055 152.363 30.3612 149.74 30.3612C147.653 30.3612 145.779 29.8929 144.12 28.9562C142.487 28.0195 141.203 26.6948 140.266 24.982C139.329 23.2424 138.861 21.2352 138.861 18.9604C138.861 16.6856 139.316 14.6918 140.226 12.9791C141.136 11.2663 142.407 9.95491 144.04 9.04499C145.699 8.10831 147.599 7.63997 149.74 7.63997C151.827 7.63997 153.674 8.09493 155.28 9.00485C156.886 9.91477 158.117 11.1726 158.973 12.7783C159.856 14.3573 160.298 16.1504 160.298 18.1576ZM156.524 17.3948C156.524 16.0032 156.217 14.8123 155.601 13.8221C154.985 12.8051 154.142 12.0424 153.072 11.5339C152.028 10.9986 150.864 10.731 149.579 10.731C147.733 10.731 146.154 11.3198 144.843 12.4973C143.558 13.6749 142.822 15.3074 142.635 17.3948H156.524Z" fill="white"/>
<path d="M162.952 18.9203C162.952 16.6723 163.407 14.7052 164.317 13.0192C165.227 11.3064 166.471 9.98167 168.05 9.04499C169.656 8.10831 171.449 7.63997 173.429 7.63997C175.33 7.63997 176.989 8.06816 178.407 8.92456C179.852 9.75419 180.91 10.7845 181.579 12.0156V8.00126H185.272V40.4372H181.579V25.9454C180.883 27.1765 179.812 28.2202 178.367 29.0766C176.922 29.933 175.236 30.3612 173.309 30.3612C171.382 30.3612 169.629 29.8795 168.05 28.916C166.471 27.9526 165.227 26.6011 164.317 24.8615C163.407 23.122 162.952 21.1416 162.952 18.9203ZM181.579 18.9604C181.579 17.3012 181.244 15.856 180.575 14.6249C179.906 13.3939 178.996 12.4572 177.845 11.8149C176.721 11.1458 175.477 10.8113 174.112 10.8113C172.747 10.8113 171.503 11.1325 170.379 11.7747C169.254 12.417 168.358 13.3537 167.689 14.5848C167.02 15.8159 166.685 17.261 166.685 18.9203C166.685 20.6063 167.02 22.0783 167.689 23.3361C168.358 24.5672 169.254 25.5172 170.379 26.1863C171.503 26.8286 172.747 27.1497 174.112 27.1497C175.477 27.1497 176.721 26.8286 177.845 26.1863C178.996 25.5172 179.906 24.5672 180.575 23.3361C181.244 22.0783 181.579 20.6197 181.579 18.9604Z" fill="white"/>
<path d="M210.152 8.00126V29.9999H206.499V26.7483C205.803 27.8723 204.826 28.7555 203.568 29.3978C202.337 30.0133 200.972 30.3211 199.474 30.3211C197.761 30.3211 196.222 29.9732 194.857 29.2773C193.492 28.5547 192.409 27.4843 191.606 26.0658C190.83 24.6474 190.441 22.9213 190.441 20.8873V8.00126H194.054V20.4056C194.054 22.5734 194.603 24.246 195.7 25.4235C196.798 26.5743 198.296 27.1497 200.196 27.1497C202.15 27.1497 203.689 26.5476 204.813 25.3433C205.937 24.139 206.499 22.386 206.499 20.0845V8.00126H210.152Z" fill="white"/>
<path d="M235.589 18.1576C235.589 18.8534 235.549 19.5894 235.468 20.3655H217.886C218.019 22.5332 218.755 24.2326 220.093 25.4637C221.458 26.668 223.104 27.2702 225.031 27.2702C226.61 27.2702 227.921 26.9089 228.965 26.1863C230.036 25.4369 230.785 24.4467 231.213 23.2157H235.147C234.558 25.3299 233.381 27.0561 231.615 28.3942C229.848 29.7055 227.654 30.3612 225.031 30.3612C222.944 30.3612 221.07 29.8929 219.411 28.9562C217.778 28.0195 216.494 26.6948 215.557 24.982C214.621 23.2424 214.152 21.2352 214.152 18.9604C214.152 16.6856 214.607 14.6918 215.517 12.9791C216.427 11.2663 217.698 9.95491 219.331 9.04499C220.99 8.10831 222.89 7.63997 225.031 7.63997C227.119 7.63997 228.965 8.09493 230.571 9.00485C232.177 9.91477 233.408 11.1726 234.264 12.7783C235.147 14.3573 235.589 16.1504 235.589 18.1576ZM231.815 17.3948C231.815 16.0032 231.508 14.8123 230.892 13.8221C230.277 12.8051 229.434 12.0424 228.363 11.5339C227.319 10.9986 226.155 10.731 224.871 10.731C223.024 10.731 221.445 11.3198 220.134 12.4973C218.849 13.6749 218.113 15.3074 217.926 17.3948H231.815Z" fill="white"/>
</svg>
