<svg width="305" height="53" viewBox="0 0 305 53" fill="none" xmlns="http://www.w3.org/2000/svg">
<path d="M9.08753 14.1505C9.95216 12.8017 11.1453 11.7123 12.6671 10.8822C14.1888 10.0522 15.97 9.63717 18.0105 9.63717C20.3969 9.63717 22.5585 10.2424 24.4952 11.4529C26.432 12.6634 27.9538 14.3926 29.0605 16.6407C30.2018 18.8887 30.7724 21.4999 30.7724 24.4742C30.7724 27.4485 30.2018 30.077 29.0605 32.3596C27.9538 34.6077 26.432 36.3542 24.4952 37.5993C22.5585 38.8098 20.3969 39.415 18.0105 39.415C16.0046 39.415 14.2234 39 12.6671 38.17C11.1453 37.3399 9.95216 36.2678 9.08753 34.9535V52.7995H0.216423V10.0522H9.08753V14.1505ZM21.7457 24.4742C21.7457 22.2608 21.1232 20.5315 19.8781 19.2864C18.6676 18.0068 17.1632 17.367 15.3647 17.367C13.6009 17.367 12.0964 18.0068 10.8514 19.2864C9.64089 20.5661 9.03565 22.3126 9.03565 24.5261C9.03565 26.7395 9.64089 28.4861 10.8514 29.7658C12.0964 31.0454 13.6009 31.6852 15.3647 31.6852C17.1286 31.6852 18.633 31.0454 19.8781 29.7658C21.1232 28.4515 21.7457 26.6877 21.7457 24.4742ZM61.6766 24.0592C61.6766 24.8892 61.6247 25.7539 61.521 26.6531H41.4443C41.5826 28.4515 42.1533 29.8349 43.1562 30.8033C44.1938 31.7371 45.4562 32.204 46.9433 32.204C49.1568 32.204 50.6958 31.2702 51.5604 29.4026H61.0022C60.518 31.3048 59.6361 33.0168 58.3564 34.5385C57.1114 36.0603 55.5377 37.2534 53.6356 38.1181C51.7334 38.9827 49.6064 39.415 47.2546 39.415C44.4186 39.415 41.8939 38.8098 39.6804 37.5993C37.467 36.3888 35.7377 34.6596 34.4926 32.4115C33.2476 30.1635 32.625 27.535 32.625 24.5261C32.625 21.5172 33.2303 18.8887 34.4408 16.6407C35.6858 14.3926 37.4151 12.6634 39.6286 11.4529C41.842 10.2424 44.384 9.63717 47.2546 9.63717C50.056 9.63717 52.5461 10.2251 54.725 11.401C56.9039 12.5769 58.5985 14.2543 59.809 16.4332C61.0541 18.612 61.6766 21.154 61.6766 24.0592ZM52.598 21.7247C52.598 20.2029 52.0792 18.9925 51.0417 18.0932C50.0041 17.194 48.7072 16.7444 47.1508 16.7444C45.6637 16.7444 44.4013 17.1767 43.3638 18.0414C42.3608 18.906 41.7382 20.1338 41.4962 21.7247H52.598ZM92.6067 24.0592C92.6067 24.8892 92.5548 25.7539 92.4511 26.6531H72.3744C72.5127 28.4515 73.0834 29.8349 74.0863 30.8033C75.1239 31.7371 76.3863 32.204 77.8734 32.204C80.0869 32.204 81.6259 31.2702 82.4905 29.4026H91.9323C91.4481 31.3048 90.5662 33.0168 89.2865 34.5385C88.0415 36.0603 86.4678 37.2534 84.5657 38.1181C82.6635 38.9827 80.5365 39.415 78.1847 39.415C75.3487 39.415 72.824 38.8098 70.6105 37.5993C68.3971 36.3888 66.6678 34.6596 65.4228 32.4115C64.1777 30.1635 63.5552 27.535 63.5552 24.5261C63.5552 21.5172 64.1604 18.8887 65.3709 16.6407C66.6159 14.3926 68.3452 12.6634 70.5587 11.4529C72.7721 10.2424 75.3141 9.63717 78.1847 9.63717C80.9861 9.63717 83.4762 10.2251 85.6551 11.401C87.834 12.5769 89.5286 14.2543 90.7391 16.4332C91.9842 18.612 92.6067 21.154 92.6067 24.0592ZM83.5281 21.7247C83.5281 20.2029 83.0093 18.9925 81.9718 18.0932C80.9342 17.194 79.6373 16.7444 78.0809 16.7444C76.5938 16.7444 75.3314 17.1767 74.2939 18.0414C73.2909 18.906 72.6684 20.1338 72.4263 21.7247H83.5281ZM105.12 14.8768C106.158 13.2859 107.455 12.0408 109.011 11.1416C110.567 10.2078 112.297 9.74092 114.199 9.74092V19.1308H111.761C109.547 19.1308 107.887 19.615 106.78 20.5834C105.674 21.5172 105.12 23.1773 105.12 25.5637V39H96.2491V10.0522H105.12V14.8768ZM116.416 24.7336C116.416 21.7939 117.004 19.2346 118.18 17.0557C119.356 14.8422 120.981 13.1303 123.056 11.9198C125.166 10.7093 127.57 10.1041 130.267 10.1041C133.76 10.1041 136.631 10.9514 138.879 12.6461C141.161 14.3408 142.666 16.6925 143.392 19.7015H138.308C137.824 17.9722 136.873 16.6061 135.455 15.6031C134.072 14.6001 132.342 14.0987 130.267 14.0987C127.57 14.0987 125.391 15.0325 123.731 16.9001C122.07 18.7331 121.24 21.3443 121.24 24.7336C121.24 28.1575 122.07 30.8033 123.731 32.6709C125.391 34.5385 127.57 35.4723 130.267 35.4723C132.342 35.4723 134.072 34.9881 135.455 34.0197C136.838 33.0513 137.789 31.6679 138.308 29.8695H143.392C142.631 32.7747 141.11 35.1092 138.827 36.873C136.544 38.6023 133.691 39.4669 130.267 39.4669C127.57 39.4669 125.166 38.8617 123.056 37.6512C120.981 36.4407 119.356 34.7287 118.18 32.5153C117.004 30.3018 116.416 27.7079 116.416 24.7336ZM162.765 10.0522C164.909 10.0522 166.846 10.5191 168.575 11.4529C170.304 12.3521 171.653 13.7182 172.621 15.5512C173.624 17.3843 174.126 19.615 174.126 22.2435V39H169.457V22.9179C169.457 20.0819 168.748 17.9203 167.33 16.4332C165.912 14.9114 163.975 14.1505 161.519 14.1505C159.029 14.1505 157.041 14.9287 155.554 16.485C154.101 18.0414 153.375 20.3067 153.375 23.281V39H148.654V0.610433H153.375V14.6174C154.308 13.1649 155.588 12.0408 157.214 11.2454C158.874 10.4499 160.724 10.0522 162.765 10.0522ZM206.739 23.6961C206.739 24.5953 206.687 25.5464 206.583 26.5493H183.861C184.033 29.3507 184.985 31.5469 186.714 33.1378C188.478 34.6941 190.605 35.4723 193.095 35.4723C195.135 35.4723 196.83 35.0054 198.179 34.0716C199.562 33.1032 200.531 31.8236 201.084 30.2327H206.168C205.407 32.9649 203.885 35.1956 201.603 36.9249C199.32 38.6196 196.484 39.4669 193.095 39.4669C190.397 39.4669 187.976 38.8617 185.832 37.6512C183.722 36.4407 182.062 34.7287 180.852 32.5153C179.641 30.2672 179.036 27.6733 179.036 24.7336C179.036 21.7939 179.624 19.2173 180.8 17.0038C181.976 14.7904 183.618 13.0957 185.728 11.9198C187.872 10.7093 190.328 10.1041 193.095 10.1041C195.792 10.1041 198.179 10.692 200.254 11.8679C202.329 13.0438 203.92 14.6693 205.027 16.7444C206.168 18.785 206.739 21.1022 206.739 23.6961ZM201.862 22.7104C201.862 20.9119 201.464 19.3729 200.669 18.0932C199.874 16.779 198.784 15.7933 197.401 15.1362C196.052 14.4445 194.547 14.0987 192.887 14.0987C190.501 14.0987 188.46 14.8595 186.766 16.3813C185.106 17.903 184.155 20.0127 183.912 22.7104H201.862ZM210.169 24.6817C210.169 21.7766 210.757 19.2346 211.933 17.0557C213.108 14.8422 214.717 13.1303 216.757 11.9198C218.832 10.7093 221.149 10.1041 223.709 10.1041C226.164 10.1041 228.309 10.6574 230.142 11.7642C232.009 12.8363 233.375 14.1678 234.24 15.7587V10.571H239.013V52.4882H234.24V33.7603C233.341 35.3513 231.957 36.7001 230.09 37.8068C228.222 38.9135 226.043 39.4669 223.553 39.4669C221.063 39.4669 218.798 38.8444 216.757 37.5993C214.717 36.3542 213.108 34.6077 211.933 32.3596C210.757 30.1116 210.169 27.5523 210.169 24.6817ZM234.24 24.7336C234.24 22.5893 233.808 20.7217 232.943 19.1308C232.078 17.5399 230.903 16.3294 229.415 15.4994C227.963 14.6347 226.355 14.2024 224.591 14.2024C222.827 14.2024 221.219 14.6174 219.766 15.4475C218.314 16.2775 217.155 17.488 216.29 19.0789C215.426 20.6698 214.993 22.5374 214.993 24.6817C214.993 26.8606 215.426 28.7628 216.29 30.3883C217.155 31.9792 218.314 33.207 219.766 34.0716C221.219 34.9017 222.827 35.3167 224.591 35.3167C226.355 35.3167 227.963 34.9017 229.415 34.0716C230.903 33.207 232.078 31.9792 232.943 30.3883C233.808 28.7628 234.24 26.8779 234.24 24.7336ZM271.166 10.571V39H266.445V34.7979C265.546 36.2505 264.283 37.3918 262.658 38.2218C261.067 39.0173 259.303 39.415 257.366 39.415C255.153 39.415 253.164 38.9654 251.4 38.0662C249.636 37.1324 248.236 35.749 247.198 33.916C246.195 32.083 245.694 29.8522 245.694 27.2237V10.571H250.363V26.6012C250.363 29.4026 251.072 31.5642 252.49 33.0859C253.908 34.5731 255.844 35.3167 258.3 35.3167C260.825 35.3167 262.813 34.5385 264.266 32.9822C265.718 31.4258 266.445 29.1605 266.445 26.1862V10.571H271.166ZM304.038 23.6961C304.038 24.5953 303.986 25.5464 303.882 26.5493H281.16C281.333 29.3507 282.284 31.5469 284.013 33.1378C285.777 34.6941 287.904 35.4723 290.394 35.4723C292.435 35.4723 294.129 35.0054 295.478 34.0716C296.861 33.1032 297.83 31.8236 298.383 30.2327H303.467C302.706 32.9649 301.185 35.1956 298.902 36.9249C296.619 38.6196 293.783 39.4669 290.394 39.4669C287.696 39.4669 285.275 38.8617 283.131 37.6512C281.021 36.4407 279.361 34.7287 278.151 32.5153C276.94 30.2672 276.335 27.6733 276.335 24.7336C276.335 21.7939 276.923 19.2173 278.099 17.0038C279.275 14.7904 280.918 13.0957 283.027 11.9198C285.172 10.7093 287.627 10.1041 290.394 10.1041C293.092 10.1041 295.478 10.692 297.553 11.8679C299.628 13.0438 301.219 14.6693 302.326 16.7444C303.467 18.785 304.038 21.1022 304.038 23.6961ZM299.161 22.7104C299.161 20.9119 298.764 19.3729 297.968 18.0932C297.173 16.779 296.083 15.7933 294.7 15.1362C293.351 14.4445 291.847 14.0987 290.187 14.0987C287.8 14.0987 285.76 14.8595 284.065 16.3813C282.405 17.903 281.454 20.0127 281.212 22.7104H299.161Z" fill="#323138"/>
</svg>
