<svg width="199" height="36" viewBox="0 0 199 36" fill="none" xmlns="http://www.w3.org/2000/svg">
<path d="M5.8922 9.77539C6.45673 8.89472 7.23579 8.18341 8.22936 7.64146C9.22294 7.09951 10.3859 6.82853 11.7182 6.82853C13.2763 6.82853 14.6876 7.2237 15.9522 8.01405C17.2167 8.80439 18.2103 9.93346 18.9329 11.4012C19.6781 12.869 20.0507 14.5739 20.0507 16.5159C20.0507 18.4579 19.6781 20.1741 18.9329 21.6644C18.2103 23.1322 17.2167 24.2726 15.9522 25.0855C14.6876 25.8759 13.2763 26.271 11.7182 26.271C10.4085 26.271 9.24552 26 8.22936 25.4581C7.23579 24.9161 6.45673 24.2161 5.8922 23.358V35.01H0.100098V7.09951H5.8922V9.77539ZM14.157 16.5159C14.157 15.0707 13.7505 13.9416 12.9376 13.1287C12.1472 12.2932 11.1649 11.8754 9.9907 11.8754C8.83906 11.8754 7.85677 12.2932 7.04385 13.1287C6.2535 13.9642 5.85833 15.1046 5.85833 16.5498C5.85833 17.995 6.2535 19.1353 7.04385 19.9708C7.85677 20.8064 8.83906 21.2241 9.9907 21.2241C11.1424 21.2241 12.1246 20.8064 12.9376 19.9708C13.7505 19.1128 14.157 17.9611 14.157 16.5159Z" fill="white"/>
<path d="M40.2285 16.2449C40.2285 16.7869 40.1947 17.3514 40.1269 17.9385H27.0185C27.1088 19.1128 27.4814 20.016 28.1363 20.6483C28.8137 21.258 29.6379 21.5628 30.6089 21.5628C32.0541 21.5628 33.059 20.9531 33.6235 19.7337H39.7882C39.4721 20.9757 38.8963 22.0935 38.0607 23.0871C37.2478 24.0806 36.2204 24.8597 34.9784 25.4242C33.7364 25.9888 32.3477 26.271 30.8122 26.271C28.9605 26.271 27.3121 25.8759 25.8668 25.0855C24.4216 24.2952 23.2926 23.1661 22.4797 21.6983C21.6667 20.2305 21.2603 18.5143 21.2603 16.5498C21.2603 14.5852 21.6554 12.869 22.4458 11.4012C23.2587 9.93346 24.3878 8.80439 25.833 8.01405C27.2782 7.2237 28.9379 6.82853 30.8122 6.82853C32.6412 6.82853 34.2671 7.21241 35.6897 7.98018C37.1123 8.74794 38.2188 9.84313 39.0092 11.2658C39.8221 12.6884 40.2285 14.3481 40.2285 16.2449ZM34.301 14.7207C34.301 13.7271 33.9622 12.9368 33.2848 12.3497C32.6074 11.7625 31.7606 11.469 30.7444 11.469C29.7734 11.469 28.9492 11.7513 28.2718 12.3158C27.6169 12.8803 27.2104 13.682 27.0524 14.7207H34.301Z" fill="white"/>
<path d="M60.4234 16.2449C60.4234 16.7869 60.3895 17.3514 60.3218 17.9385H47.2133C47.3036 19.1128 47.6762 20.016 48.3311 20.6483C49.0085 21.258 49.8327 21.5628 50.8037 21.5628C52.2489 21.5628 53.2538 20.9531 53.8183 19.7337H59.983C59.6669 20.9757 59.0911 22.0935 58.2556 23.0871C57.4426 24.0806 56.4152 24.8597 55.1732 25.4242C53.9313 25.9888 52.5425 26.271 51.007 26.271C49.1553 26.271 47.5069 25.8759 46.0617 25.0855C44.6165 24.2952 43.4874 23.1661 42.6745 21.6983C41.8615 20.2305 41.4551 18.5143 41.4551 16.5498C41.4551 14.5852 41.8503 12.869 42.6406 11.4012C43.4535 9.93346 44.5826 8.80439 46.0278 8.01405C47.473 7.2237 49.1327 6.82853 51.007 6.82853C52.8361 6.82853 54.4619 7.21241 55.8845 7.98018C57.3072 8.74794 58.4136 9.84313 59.204 11.2658C60.0169 12.6884 60.4234 14.3481 60.4234 16.2449ZM54.4958 14.7207C54.4958 13.7271 54.1571 12.9368 53.4796 12.3497C52.8022 11.7625 51.9554 11.469 50.9392 11.469C49.9682 11.469 49.144 11.7513 48.4666 12.3158C47.8117 12.8803 47.4053 13.682 47.2472 14.7207H54.4958Z" fill="white"/>
<path d="M68.5937 10.2496C69.2711 9.21086 70.1179 8.39793 71.134 7.81082C72.1502 7.20112 73.2793 6.89628 74.5212 6.89628V13.0271H72.9293C71.4841 13.0271 70.4002 13.3432 69.6776 13.9755C68.955 14.5852 68.5937 15.6691 68.5937 17.2272V26H62.8016V7.09951H68.5937V10.2496Z" fill="white"/>
<path d="M75.9687 16.6853C75.9687 14.7659 76.3526 13.0948 77.1204 11.6722C77.8881 10.227 78.9495 9.10924 80.3043 8.3189C81.6818 7.52855 83.2512 7.13338 85.0125 7.13338C87.2933 7.13338 89.1675 7.68662 90.6353 8.7931C92.1256 9.89959 93.1079 11.4351 93.5821 13.3997H90.2627C89.9466 12.2706 89.3256 11.3787 88.3997 10.7238C87.4965 10.0689 86.3674 9.74152 85.0125 9.74152C83.2512 9.74152 81.8286 10.3512 80.7447 11.5706C79.6608 12.7674 79.1188 14.4723 79.1188 16.6853C79.1188 18.9208 79.6608 20.6483 80.7447 21.8677C81.8286 23.0871 83.2512 23.6968 85.0125 23.6968C86.3674 23.6968 87.4965 23.3806 88.3997 22.7483C89.303 22.1161 89.924 21.2128 90.2627 20.0386H93.5821C93.0854 21.9354 92.0918 23.4597 90.6014 24.6113C89.1111 25.7404 87.2481 26.3049 85.0125 26.3049C83.2512 26.3049 81.6818 25.9097 80.3043 25.1194C78.9495 24.329 77.8881 23.2113 77.1204 21.7661C76.3526 20.3209 75.9687 18.6273 75.9687 16.6853Z" fill="white"/>
<path d="M106.231 7.09951C107.631 7.09951 108.895 7.40435 110.024 8.01405C111.153 8.60116 112.034 9.49312 112.666 10.6899C113.321 11.8867 113.649 13.3432 113.649 15.0594V26H110.6V15.4997C110.6 13.6481 110.137 12.2368 109.211 11.2658C108.286 10.2722 107.021 9.77539 105.418 9.77539C103.792 9.77539 102.493 10.2835 101.522 11.2996C100.574 12.3158 100.1 13.7949 100.1 15.7369V26H97.0175V0.934814H100.1V10.0802C100.71 9.13182 101.545 8.39793 102.606 7.87856C103.69 7.35919 104.898 7.09951 106.231 7.09951Z" fill="white"/>
<path d="M134.942 16.0078C134.942 16.5949 134.908 17.2159 134.841 17.8708H120.005C120.118 19.6999 120.739 21.1338 121.868 22.1725C123.019 23.1887 124.408 23.6968 126.034 23.6968C127.366 23.6968 128.473 23.3919 129.353 22.7822C130.257 22.1499 130.889 21.3144 131.25 20.2757H134.57C134.073 22.0596 133.079 23.5161 131.589 24.6452C130.098 25.7517 128.247 26.3049 126.034 26.3049C124.272 26.3049 122.692 25.9097 121.292 25.1194C119.914 24.329 118.83 23.2113 118.04 21.7661C117.25 20.2983 116.855 18.6047 116.855 16.6853C116.855 14.7659 117.238 13.0835 118.006 11.6383C118.774 10.1931 119.847 9.08666 121.224 8.3189C122.624 7.52855 124.227 7.13338 126.034 7.13338C127.795 7.13338 129.353 7.51726 130.708 8.28503C132.063 9.05279 133.102 10.1141 133.824 11.469C134.57 12.8013 134.942 14.3142 134.942 16.0078ZM131.758 15.3643C131.758 14.19 131.499 13.1852 130.979 12.3497C130.46 11.4916 129.748 10.848 128.845 10.419C127.965 9.96733 126.982 9.74152 125.898 9.74152C124.34 9.74152 123.008 10.2383 121.901 11.2319C120.818 12.2255 120.197 13.6029 120.039 15.3643H131.758Z" fill="white"/>
<path d="M137.182 16.6514C137.182 14.7546 137.566 13.0948 138.333 11.6722C139.101 10.227 140.151 9.10924 141.483 8.3189C142.838 7.52855 144.351 7.13338 146.022 7.13338C147.626 7.13338 149.026 7.49468 150.222 8.21728C151.442 8.9173 152.334 9.78668 152.898 10.8254V7.43823H156.014V34.8068H152.898V22.579C152.311 23.6177 151.408 24.4984 150.188 25.221C148.969 25.9436 147.546 26.3049 145.921 26.3049C144.295 26.3049 142.816 25.8984 141.483 25.0855C140.151 24.2726 139.101 23.1322 138.333 21.6644C137.566 20.1967 137.182 18.5256 137.182 16.6514ZM152.898 16.6853C152.898 15.2852 152.616 14.0658 152.051 13.0271C151.487 11.9884 150.719 11.198 149.748 10.6561C148.8 10.0915 147.75 9.80926 146.598 9.80926C145.446 9.80926 144.396 10.0802 143.448 10.6222C142.5 11.1641 141.743 11.9545 141.179 12.9932C140.614 14.032 140.332 15.2514 140.332 16.6514C140.332 18.074 140.614 19.316 141.179 20.3773C141.743 21.416 142.5 22.2177 143.448 22.7822C144.396 23.3242 145.446 23.5951 146.598 23.5951C147.75 23.5951 148.8 23.3242 149.748 22.7822C150.719 22.2177 151.487 21.416 152.051 20.3773C152.616 19.316 152.898 18.0853 152.898 16.6853Z" fill="white"/>
<path d="M177.008 7.43823V26H173.925V23.2564C173.338 24.2048 172.514 24.95 171.453 25.492C170.414 26.0113 169.262 26.271 167.998 26.271C166.553 26.271 165.254 25.9775 164.102 25.3904C162.951 24.7807 162.036 23.8774 161.359 22.6806C160.704 21.4838 160.377 20.0273 160.377 18.3111V7.43823H163.425V17.9047C163.425 19.7337 163.888 21.1451 164.814 22.1386C165.74 23.1096 167.004 23.5951 168.607 23.5951C170.256 23.5951 171.554 23.0871 172.503 22.0709C173.451 21.0547 173.925 19.5757 173.925 17.6337V7.43823H177.008Z" fill="white"/>
<path d="M198.471 16.0078C198.471 16.5949 198.437 17.2159 198.369 17.8708H183.533C183.646 19.6999 184.267 21.1338 185.396 22.1725C186.548 23.1887 187.936 23.6968 189.562 23.6968C190.895 23.6968 192.001 23.3919 192.882 22.7822C193.785 22.1499 194.417 21.3144 194.779 20.2757H198.098C197.601 22.0596 196.608 23.5161 195.117 24.6452C193.627 25.7517 191.775 26.3049 189.562 26.3049C187.801 26.3049 186.22 25.9097 184.82 25.1194C183.443 24.329 182.359 23.2113 181.568 21.7661C180.778 20.2983 180.383 18.6047 180.383 16.6853C180.383 14.7659 180.767 13.0835 181.535 11.6383C182.302 10.1931 183.375 9.08666 184.752 8.3189C186.152 7.52855 187.756 7.13338 189.562 7.13338C191.324 7.13338 192.882 7.51726 194.237 8.28503C195.591 9.05279 196.63 10.1141 197.353 11.469C198.098 12.8013 198.471 14.3142 198.471 16.0078ZM195.287 15.3643C195.287 14.19 195.027 13.1852 194.508 12.3497C193.988 11.4916 193.277 10.848 192.374 10.419C191.493 9.96733 190.511 9.74152 189.427 9.74152C187.869 9.74152 186.536 10.2383 185.43 11.2319C184.346 12.2255 183.725 13.6029 183.567 15.3643H195.287Z" fill="white"/>
</svg>
